<?xml version="1.0" standalone="no"?>
<!DOCTYPE svg PUBLIC "-//W3C//DTD SVG 20010904//EN"
 "http://www.w3.org/TR/2001/REC-SVG-20010904/DTD/svg10.dtd">
<svg version="1.0" xmlns="http://www.w3.org/2000/svg"
 width="1200.000000pt" height="1200.000000pt" viewBox="0 0 1200.000000 1200.000000"
 preserveAspectRatio="xMidYMid meet">
<metadata>
Created by potrace 1.11, written by Peter Selinger 2001-2013
</metadata>
<g transform="translate(0.000000,1200.000000) scale(0.100000,-0.100000)"
fill="#000000" stroke="none">
<path d="M0 6000 l0 -6000 6000 0 6000 0 0 6000 0 6000 -6000 0 -6000 0 0
-6000z m5830 3 l178 -173 498 492 c275 271 839 830 1254 1242 1238 1231 1485
1476 1487 1476 2 0 3 -627 3 -1394 l0 -1394 -1622 -1612 -1622 -1611 -610 609
c-336 334 -1069 1063 -1628 1619 l-1018 1010 0 1398 0 1397 1451 -1443 c798
-794 1531 -1522 1629 -1616z m-1783 -1624 l1073 -1065 0 -197 0 -197 -1185 0
-1185 0 0 1372 0 1372 112 -110 c62 -60 595 -589 1185 -1175z m5203 -89 l0
-1370 -1185 0 -1185 0 0 198 0 197 1181 1173 c650 644 1183 1172 1185 1172 2
0 4 -616 4 -1370z"/>
</g>
</svg>
